<svg width="208" height="32" viewBox="0 0 208 32" fill="none" xmlns="http://www.w3.org/2000/svg">
<path d="M0 2C0 0.895431 0.895431 0 2 0H62C63.1046 0 64 0.895431 64 2V30C64 31.1046 63.1046 32 62 32H2C0.895431 32 0 31.1046 0 30V2Z" fill="#8A8A8A"/>
<path d="M72 2C72 0.895431 72.8954 0 74 0H134C135.105 0 136 0.895431 136 2V30C136 31.1046 135.105 32 134 32H74C72.8954 32 72 31.1046 72 30V2Z" fill="#8A8A8A"/>
<path d="M144 2C144 0.895431 144.895 0 146 0H206C207.105 0 208 0.895431 208 2V30C208 31.1046 207.105 32 206 32H146C144.895 32 144 31.1046 144 30V2Z" fill="#8A8A8A"/>
</svg>
