<svg xmlns="http://www.w3.org/2000/svg" width="308" height="103" fill="none">
  <path stroke="#fff" stroke-linecap="round" stroke-linejoin="round" stroke-width="7" d="M23.384 4 4.026 77.229c-.007.024-.01.036-.012.049l-.005.05c-.143 2.105 1.389.702 3.022-2.775 4.074-8.675 23.32-37.041 33.196-37.041 9.877 0-4.115 27.236 0 27.236 4.939 0 16.187-19.61 19.753-19.61 4.973 0-9.61 23.132-17.316 36.297-.426.727-.639 1.09-.488 1.24.15.148.514-.07 1.243-.505 18.106-10.828 55.698-30.496 74.998-30.496 23.35 0 4.495 26.379-8.825 43.687-1.736 2.256-2.604 3.385-2.441 3.554.162.169 1.327-.657 3.655-2.31 14.358-10.187 57.765-34.927 144.367-38.394 55.922-2.239 59.808 14.708 31.825 17.976"/>
</svg>
